<svg width="21" height="20" viewBox="0 0 21 20" fill="none" xmlns="http://www.w3.org/2000/svg">
<path fill-rule="evenodd" clip-rule="evenodd" d="M8.83333 2.5C5.61167 2.5 3 5.11167 3 8.33333C3 11.555 5.61167 14.1667 8.83333 14.1667C10.1436 14.1667 11.353 13.7347 12.3268 13.0053L15.7441 16.4227C16.0696 16.7481 16.5972 16.7481 16.9227 16.4227C17.2481 16.0972 17.2481 15.5696 16.9227 15.2441L13.5053 11.8268C14.2347 10.853 14.6667 9.64361 14.6667 8.33333C14.6667 5.11167 12.055 2.5 8.83333 2.5ZM4.66667 8.33333C4.66667 6.03215 6.53215 4.16667 8.83333 4.16667C11.1345 4.16667 13 6.03215 13 8.33333C13 10.6345 11.1345 12.5 8.83333 12.5C6.53215 12.5 4.66667 10.6345 4.66667 8.33333Z" fill="#1C1C1C"/>
</svg>
